<svg width="32" height="32" viewBox="0 0 32 32" fill="none" xmlns="http://www.w3.org/2000/svg">
<rect width="32" height="32" rx="6" fill="#01494B"/>
<path d="M26.826 12.2212L24.9449 10.3357C24.9024 10.2929 24.8514 10.2597 24.7951 10.2382C24.7388 10.2166 24.6786 10.2073 24.6185 10.2109C24.5584 10.2144 24.4997 10.2307 24.4463 10.2587C24.3929 10.2866 24.3461 10.3256 24.309 10.3731C22.4697 12.7933 19.4203 14.3576 15.9704 14.3598C12.5206 14.362 9.46897 12.7867 7.63845 10.3775C7.60169 10.3283 7.5547 10.2877 7.50072 10.2584C7.44673 10.2291 7.38704 10.2119 7.32576 10.2079C7.26448 10.2039 7.20307 10.2133 7.14576 10.2354C7.08845 10.2574 7.0366 10.2917 6.9938 10.3357L5.11267 12.2168C4.98788 12.3403 4.91356 12.5059 4.9042 12.6812C4.89485 12.8565 4.95113 13.029 5.06206 13.1651C6.3853 14.7756 8.04917 16.0726 9.93388 16.9629C11.8186 17.8531 13.8772 18.3144 15.9616 18.3134H15.977C18.0614 18.3144 20.1201 17.8531 22.0048 16.9629C23.8895 16.0726 25.5534 14.7756 26.8766 13.1651C26.9863 13.0293 27.0418 12.8577 27.0325 12.6834C27.0231 12.5091 26.9496 12.3445 26.826 12.2212Z" fill="white"/>
<path d="M22.4512 21.4968C23.0458 21.4968 23.5412 21.7053 23.9376 22.1224C24.3381 22.5394 24.5384 23.0535 24.5384 23.6646C24.5384 24.2757 24.3381 24.7897 23.9376 25.2068C23.5412 25.6238 23.0458 25.8323 22.4512 25.8323H20.7294V21.4968H22.4512ZM22.4512 25.0148C22.8269 25.0148 23.1325 24.8909 23.3678 24.6432C23.6032 24.3913 23.7209 24.0651 23.7209 23.6646C23.7209 23.2641 23.6032 22.9399 23.3678 22.6922C23.1325 22.4403 22.8269 22.3144 22.4512 22.3144H21.5841V25.0148H22.4512Z" fill="white"/>
<path d="M18.466 25.0148H20.1197V25.8323H17.6113V21.4968H18.466V25.0148Z" fill="white"/>
<path d="M16.231 25.2687C15.7933 25.7023 15.2606 25.9191 14.633 25.9191C14.0054 25.9191 13.4728 25.7023 13.0351 25.2687C12.6015 24.8311 12.3848 24.2963 12.3848 23.6646C12.3848 23.0329 12.6015 22.5002 13.0351 22.0667C13.4728 21.629 14.0054 21.4102 14.633 21.4102C15.2606 21.4102 15.7933 21.629 16.231 22.0667C16.6686 22.5002 16.8875 23.0329 16.8875 23.6646C16.8875 24.2963 16.6686 24.8311 16.231 25.2687ZM13.6359 24.6865C13.9042 24.9508 14.2366 25.0829 14.633 25.0829C15.0294 25.0829 15.3618 24.9508 15.6302 24.6865C15.8986 24.4182 16.0328 24.0775 16.0328 23.6646C16.0328 23.2517 15.8986 22.9111 15.6302 22.6427C15.3618 22.3743 15.0294 22.2401 14.633 22.2401C14.2366 22.2401 13.9042 22.3743 13.6359 22.6427C13.3675 22.9111 13.2333 23.2517 13.2333 23.6646C13.2333 24.0775 13.3675 24.4182 13.6359 24.6865Z" fill="white"/>
<path d="M11.8506 23.5036V23.838C11.8506 24.4574 11.6524 24.9591 11.256 25.3431C10.8597 25.7271 10.3477 25.9191 9.72004 25.9191C9.05114 25.9191 8.49578 25.7023 8.05398 25.2687C7.6163 24.8311 7.39746 24.2984 7.39746 23.6708C7.39746 23.0391 7.61424 22.5043 8.04778 22.0667C8.48546 21.629 9.02636 21.4102 9.67049 21.4102C10.0751 21.4102 10.4447 21.5031 10.7791 21.6889C11.1136 21.8705 11.3737 22.1142 11.5595 22.4197L10.8287 22.8409C10.7255 22.6633 10.5686 22.5188 10.358 22.4073C10.1515 22.2958 9.9203 22.2401 9.6643 22.2401C9.2514 22.2401 8.91075 22.3763 8.64236 22.6489C8.37811 22.9173 8.24598 23.2579 8.24598 23.6708C8.24598 24.0796 8.38017 24.4182 8.64856 24.6865C8.92107 24.9508 9.2803 25.0829 9.72624 25.0829C10.0566 25.0829 10.3291 25.0107 10.5438 24.8662C10.7626 24.7175 10.9113 24.5152 10.9897 24.2592H9.67669V23.5036H11.8506Z" fill="white"/>
</svg>
