<svg width="426" height="161" viewBox="0 0 426 161" fill="none" xmlns="http://www.w3.org/2000/svg">
<path d="M18.816 90.56H33.216V83.712C33.216 81.792 32.5333 80.1707 31.168 78.848C29.8453 77.5253 28.224 76.864 26.304 76.864H20.416V71.424H26.304C28.5653 71.424 30.6347 71.9787 32.512 73.088C34.3893 74.1547 35.8613 75.6267 36.928 77.504C38.0373 79.3813 38.592 81.4507 38.592 83.712V90.56H41.984L42.944 93.248L41.984 96H18.816V90.56ZM41.04 93.312L41.936 90.56H42C43.8773 90.56 45.4773 89.8987 46.8 88.576C48.1653 87.2107 48.848 85.5893 48.848 83.712V57.344L54.352 56.064V83.712C54.352 85.5893 55.0133 87.2107 56.336 88.576C57.6587 89.8987 59.2587 90.56 61.136 90.56L62.096 93.312L61.136 96C59.216 96 57.4453 95.5733 55.824 94.72C54.2027 93.8667 52.8373 92.7147 51.728 91.264C50.576 92.7573 49.1467 93.9307 47.44 94.784C45.7333 95.5947 43.92 96 42 96H41.872L41.04 93.312ZM60.165 93.312L61.125 90.56H98.885C100.762 90.56 102.362 89.8987 103.685 88.576C105.05 87.2107 105.733 85.5893 105.733 83.712C105.733 81.792 105.05 80.1707 103.685 78.848C102.362 77.5253 100.762 76.864 98.885 76.864H64.389V71.36L88.261 56.576L91.269 60.928L74.245 71.424H98.885C101.146 71.424 103.216 71.9787 105.093 73.088C106.97 74.1547 108.464 75.6267 109.573 77.504C110.682 79.3813 111.237 81.4507 111.237 83.712C111.237 85.9307 110.682 87.9787 109.573 89.856C108.464 91.7333 106.97 93.2267 105.093 94.336C103.216 95.4453 101.146 96 98.885 96H61.125L60.165 93.312ZM71.813 58.88L84.549 51.008L85.829 53.056L73.093 60.928L71.813 58.88ZM140.142 96C137.923 96 135.875 95.4453 133.998 94.336C132.12 93.2267 130.627 91.7333 129.518 89.856C128.408 87.9787 127.854 85.9307 127.854 83.712C127.854 81.4933 128.408 79.4453 129.518 77.568C130.627 75.6907 132.12 74.1973 133.998 73.088C135.875 71.9787 137.923 71.424 140.142 71.424H152.43V83.712C152.43 85.9307 151.875 87.9787 150.766 89.856C149.699 91.7333 148.227 93.2267 146.35 94.336C144.472 95.4453 142.403 96 140.142 96ZM140.142 90.56C142.062 90.56 143.683 89.8987 145.006 88.576C146.328 87.2107 146.99 85.5893 146.99 83.712V76.864H140.142C138.264 76.864 136.643 77.5253 135.278 78.848C133.955 80.1707 133.294 81.792 133.294 83.712C133.294 85.5893 133.955 87.2107 135.278 88.576C136.643 89.8987 138.264 90.56 140.142 90.56ZM159.041 57.344L164.545 56V96H159.041V57.344ZM168.636 105.088L173.948 101.632V73.792L179.452 72.384V83.712C179.452 85.5893 180.113 87.2107 181.436 88.576C182.758 89.8987 184.358 90.56 186.236 90.56L187.196 93.312L186.236 96C185.041 96 183.846 95.7227 182.652 95.168C181.457 94.5707 180.39 93.7813 179.452 92.8V104.512L171.708 109.696L168.636 105.088ZM185.29 93.312L186.186 90.56H186.25C188.127 90.56 189.727 89.8987 191.05 88.576C192.415 87.2107 193.098 85.5893 193.098 83.712V71.36H205.386C207.647 71.36 209.717 71.9147 211.594 73.024C213.471 74.1333 214.965 75.6267 216.074 77.504C217.183 79.3813 217.738 81.4507 217.738 83.712C217.738 85.5893 218.399 87.2107 219.722 88.576C221.087 89.8987 222.709 90.56 224.586 90.56L225.482 93.312L224.522 96C222.645 96 220.874 95.5733 219.21 94.72C217.589 93.8667 216.223 92.736 215.114 91.328C213.962 92.7787 212.533 93.9307 210.826 94.784C209.162 95.5947 207.349 96 205.386 96C203.466 96 201.653 95.5733 199.946 94.72C198.282 93.824 196.917 92.6293 195.85 91.136C194.741 92.6293 193.333 93.824 191.626 94.72C189.962 95.5733 188.17 96 186.25 96H186.186L185.29 93.312ZM205.386 90.56C207.306 90.56 208.927 89.8987 210.25 88.576C211.573 87.2107 212.234 85.5893 212.234 83.712C212.234 81.792 211.573 80.1707 210.25 78.848C208.927 77.5253 207.306 76.864 205.386 76.864H198.602V83.712C198.602 85.5893 199.263 87.2107 200.586 88.576C201.909 89.8987 203.509 90.56 205.386 90.56ZM223.54 93.312L224.5 90.56H230.388C228.639 88.6827 227.764 86.4 227.764 83.712C227.764 82.3893 227.977 81.152 228.404 80C228.873 78.8053 229.535 77.76 230.388 76.864H227.636V71.424H256.756C258.975 71.424 261.023 71.9787 262.9 73.088C264.777 74.1973 266.271 75.6907 267.38 77.568C268.489 79.4453 269.044 81.4933 269.044 83.712C269.044 85.9307 268.489 87.9787 267.38 89.856C266.271 91.7333 264.777 93.2267 262.9 94.336C261.023 95.4453 258.975 96 256.756 96H224.5L223.54 93.312ZM240.052 90.56C241.929 90.56 243.529 89.8987 244.852 88.576C246.217 87.2107 246.9 85.5893 246.9 83.712C246.9 81.792 246.217 80.1707 244.852 78.848C243.529 77.5253 241.929 76.864 240.052 76.864C238.175 76.864 236.553 77.5253 235.188 78.848C233.865 80.1707 233.204 81.792 233.204 83.712C233.204 85.5893 233.865 87.2107 235.188 88.576C236.553 89.8987 238.175 90.56 240.052 90.56ZM256.756 90.56C258.633 90.56 260.233 89.8987 261.556 88.576C262.921 87.2107 263.604 85.5893 263.604 83.712C263.604 81.792 262.921 80.1707 261.556 78.848C260.233 77.5253 258.633 76.864 256.756 76.864H249.716C250.527 77.8027 251.167 78.8693 251.636 80.064C252.105 81.216 252.34 82.432 252.34 83.712C252.34 86.3147 251.465 88.5973 249.716 90.56H256.756Z" fill="black"/>
<path d="M350.595 89.9924C350.039 91.7853 349.248 94.7029 348.683 97.8417C348.014 101.54 347.115 105.239 346.442 108.943C346.22 110.063 346.103 111.075 345.886 111.969C345.829 112.293 345.778 112.595 345.721 112.863C345.707 112.929 345.698 112.999 345.683 113.065C345.641 113.282 345.589 113.474 345.547 113.653C345.099 115.503 344.37 117.206 342.839 118.387C341.761 119.22 340.513 119.794 339.213 120.204C338.723 120.364 338.219 120.491 337.725 120.609C331.052 122.133 324.318 122.303 317.499 122.176C300.217 121.832 289 112.416 289 92.1241C289 76.6513 295.061 62.4068 303.697 53.6633C311.213 46.1528 319.52 40.3223 334.885 40.3223C337.019 40.3223 339.825 40.4305 342.858 40.7693C342.867 40.7693 342.877 40.7693 342.886 40.7693C343.503 40.8352 343.673 41.6681 343.126 41.9599C342.622 42.2281 342.137 42.5293 341.685 42.8822C340.56 43.7528 339.538 46.2987 339.072 47.6069C338.907 48.0728 338.436 48.3457 337.946 48.2845C336.727 48.134 335.446 48.0634 334.108 48.0634C330.289 48.0634 320.532 48.0634 310.888 64.7691C305.388 74.1855 304.262 83.7195 304.262 91.1171C304.262 94.5947 304.71 103.564 309.202 108.839C314.924 115.55 322.882 116.049 330.869 113.503C331 113.46 331.099 113.352 331.132 113.216C332.3 107.724 335.691 91.3147 335.907 89.4418C336.821 81.5972 352.789 82.9807 350.604 89.9971L350.595 89.9924Z" fill="#FFC300"/>
<path d="M337.922 72.5394C338.473 70.7465 339.258 67.8289 339.818 64.6901C340.481 60.9913 341.373 57.2925 342.04 53.589C342.26 52.469 342.377 51.4573 342.591 50.5631C342.647 50.2384 342.699 49.9373 342.755 49.669C342.769 49.6032 342.778 49.5326 342.792 49.4667C342.834 49.2502 342.886 49.0573 342.928 48.8785C343.371 47.0291 344.095 45.3256 345.612 44.1444C346.682 43.3115 347.919 42.7373 349.208 42.3279C349.693 42.1679 350.193 42.0409 350.683 41.9232C357.304 40.3985 363.981 40.2291 370.742 40.3562C387.873 40.6997 399 50.1161 399 70.4077C399 85.8805 392.991 100.12 384.427 108.868C376.98 116.384 368.739 122.21 353.503 122.21C351.388 122.21 348.605 122.101 345.598 121.762C345.589 121.762 345.58 121.762 345.57 121.762C344.959 121.697 344.791 120.864 345.332 120.572C345.832 120.304 346.313 120.002 346.761 119.65C347.877 118.779 348.89 116.233 349.352 114.925C349.516 114.459 349.983 114.186 350.468 114.247C351.678 114.398 352.948 114.468 354.274 114.468C358.06 114.468 367.735 114.468 377.297 97.7627C382.751 88.3463 383.867 78.8123 383.867 71.4147C383.867 67.9371 383.423 58.9678 378.969 53.6925C373.296 46.982 365.405 46.4832 357.486 49.029C357.355 49.0714 357.257 49.1796 357.225 49.3161C356.067 54.8078 352.705 71.2171 352.49 73.09C351.584 80.9346 335.751 79.5511 337.918 72.5347L337.922 72.5394Z" fill="#FFC300"/>
</svg>
