<svg xmlns="http://www.w3.org/2000/svg" width="126" height="18" fill="none"><path fill="#2D2D2D" d="m53.167 3.972-2.878 6.721a.2.2 0 0 1-.072.082q-.045.034-.1.023a.13.13 0 0 1-.093-.038.15.15 0 0 1-.058-.09L47.87 4.01a.5.5 0 0 0-.15-.233.4.4 0 0 0-.251-.09h-1.69a.42.42 0 0 0-.408.322l-1.969 6.654a.15.15 0 0 1-.057.09.15.15 0 0 1-.093.037.2.2 0 0 1-.1-.022.2.2 0 0 1-.072-.083L40.051 3.95a.44.44 0 0 0-.387-.261h-1.647a.5.5 0 0 0-.207.052.5.5 0 0 0-.158.15.36.36 0 0 0-.064.21.45.45 0 0 0 .036.216l4.703 10.643a.44.44 0 0 0 .387.262h1.704q.14 0 .258-.09a.43.43 0 0 0 .157-.232l1.668-6.002c.007-.038.036-.068.065-.09a.17.17 0 0 1 .1-.038q.056.002.1.038.043.033.065.09l1.797 6.017a.5.5 0 0 0 .157.232c.072.06.165.09.258.09h1.704a.4.4 0 0 0 .236-.075.4.4 0 0 0 .158-.194L55.65 4.33a.45.45 0 0 0-.036-.426.5.5 0 0 0-.157-.15.4.4 0 0 0-.208-.053h-1.697a.4.4 0 0 0-.236.075.5.5 0 0 0-.15.195M68.832 3.717H67.32a.3.3 0 0 0-.165.037.36.36 0 0 0-.136.098.457.457 0 0 0-.122.322V14.8c0 .12.043.232.122.322a.42.42 0 0 0 .3.135h5.592a.42.42 0 0 0 .308-.135.48.48 0 0 0 .13-.322v-1.594a.46.46 0 0 0-.13-.322.42.42 0 0 0-.308-.134h-3.486a.2.2 0 0 1-.122-.053.2.2 0 0 1-.036-.06.2.2 0 0 1-.014-.067V4.173a.46.46 0 0 0-.122-.321.4.4 0 0 0-.143-.098c-.05-.022-.107-.03-.157-.037M76.879 3.717h-1.51a.3.3 0 0 0-.165.037.36.36 0 0 0-.136.098.4.4 0 0 0-.094.15.5.5 0 0 0-.028.171v10.628c0 .12.043.232.121.322a.42.42 0 0 0 .301.135h5.599a.42.42 0 0 0 .308-.135.48.48 0 0 0 .129-.322v-1.594a.46.46 0 0 0-.13-.322.42.42 0 0 0-.307-.134H77.48a.2.2 0 0 1-.064-.015.16.16 0 0 1-.093-.098c-.007-.022-.015-.045-.015-.067V4.173a.46.46 0 0 0-.121-.321.4.4 0 0 0-.144-.098c-.057-.022-.114-.03-.164-.037M59.303 10.871h-1.447a.18.18 0 0 1-.15-.082.16.16 0 0 1-.029-.082c0-.03 0-.06.015-.09l1.367-3.181a.14.14 0 0 1 .065-.067.2.2 0 0 1 .086-.023c.028 0 .064.008.085.023s.05.037.065.067l3.243 7.544q.052.126.158.195c.071.045.15.075.236.075h1.682a.5.5 0 0 0 .208-.053.5.5 0 0 0 .158-.15.448.448 0 0 0 .036-.427l-4.576-10.65a.4.4 0 0 0-.157-.194.44.44 0 0 0-.236-.075h-1.79a.4.4 0 0 0-.236.075.4.4 0 0 0-.158.195L53.36 14.614a.45.45 0 0 0 .036.426c.036.06.093.112.158.15a.4.4 0 0 0 .207.052h1.676a.37.37 0 0 0 .229-.075.4.4 0 0 0 .157-.194l.602-1.347a.44.44 0 0 1 .387-.262h3.157a.4.4 0 0 0 .207-.053.5.5 0 0 0 .158-.15.448.448 0 0 0 .036-.427l-.688-1.593a.44.44 0 0 0-.15-.195.44.44 0 0 0-.23-.075"/><path fill="#CF8C06" d="M90.16 14.9a4.2 4.2 0 0 1-1.633.336c-.866 0-1.647-.15-2.334-.45a4.9 4.9 0 0 1-1.747-1.226 5.4 5.4 0 0 1-1.088-1.834 6.7 6.7 0 0 1-.38-2.276c0-.83.13-1.609.38-2.32s.616-1.34 1.088-1.87a5 5 0 0 1 1.747-1.25c.687-.3 1.468-.457 2.334-.457.58 0 1.138.082 1.683.254a5 5 0 0 1 1.474.756c.437.337.802.749 1.082 1.235.214.367.365.771.45 1.22.05.24-.128.472-.365.472h-1.66a.38.38 0 0 1-.351-.27c-.158-.494-.423-.876-.78-1.138-.423-.314-.931-.471-1.533-.471-.558 0-1.03.105-1.425.322a2.7 2.7 0 0 0-.952.86q-.366.541-.53 1.228a6.2 6.2 0 0 0-.164 1.422q.002.708.164 1.37.164.66.53 1.197.364.528.952.853c.394.218.867.322 1.425.322.823 0 1.46-.202 1.904-.621q.583-.53.745-1.474a.265.265 0 0 0-.258-.315h-1.833a.38.38 0 0 1-.372-.389V9.331c0-.217.165-.39.373-.39h4.002c.207 0 .372.173.372.39V14.6c0 .217-.165.389-.372.389h-.91a.37.37 0 0 1-.365-.307l-.1-.516c-.036-.18-.243-.247-.365-.12a3.2 3.2 0 0 1-1.189.853M95.364 7.13c.25-.71.616-1.34 1.096-1.87a5 5 0 0 1 1.747-1.25c.687-.3 1.467-.457 2.334-.457q1.31-.002 2.341.456 1.03.452 1.739 1.25a5.5 5.5 0 0 1 1.089 1.871c.25.711.379 1.49.379 2.32 0 .816-.129 1.572-.379 2.276a5.35 5.35 0 0 1-1.089 1.833 5 5 0 0 1-1.739 1.228q-1.032.45-2.341.449-1.302 0-2.334-.45a4.9 4.9 0 0 1-1.747-1.226 5.6 5.6 0 0 1-1.096-1.834 6.7 6.7 0 0 1-.38-2.276c0-.83.13-1.601.38-2.32m2.277 3.69c.107.442.286.838.53 1.198q.363.527.952.853c.387.217.866.322 1.425.322q.836.002 1.424-.322c.394-.217.709-.494.953-.853.243-.352.422-.756.529-1.198q.163-.662.165-1.37a6.2 6.2 0 0 0-.165-1.422 3.7 3.7 0 0 0-.529-1.227 2.7 2.7 0 0 0-.953-.86q-.588-.325-1.424-.323c-.559 0-1.031.105-1.425.322a2.7 2.7 0 0 0-.952.861q-.368.54-.53 1.227a6.2 6.2 0 0 0-.165 1.422q-.009.708.165 1.37M110.27 4.211v8.323c0 .217.165.39.373.39h3.429c.208 0 .372.172.372.389V14.6c0 .217-.164.39-.372.39h-5.914a.38.38 0 0 1-.372-.39V4.21c0-.217.165-.389.372-.389h1.74c.208.008.372.18.372.39M120.874 3.83c.73 0 1.403.112 2.033.344q.945.348 1.632 1.033c.458.456.816 1.033 1.074 1.721Q126 7.961 126 9.353c0 .816-.108 1.565-.315 2.253a4.85 4.85 0 0 1-.96 1.781c-.429.502-.959.891-1.596 1.183q-.956.427-2.255.427h-4.504a.38.38 0 0 1-.372-.39V4.211c0-.217.165-.389.372-.389h4.504zm-.179 9.093q.538-.002 1.045-.172c.336-.112.637-.307.902-.569q.396-.402.63-1.04.236-.641.236-1.564-.002-.842-.164-1.527a3.1 3.1 0 0 0-.544-1.168 2.4 2.4 0 0 0-1.003-.74c-.415-.173-.931-.255-1.539-.255h-1.403a.38.38 0 0 0-.373.39v6.256c0 .217.165.39.373.39zM32.587 5.296 28.413.933a.8.8 0 0 0-.558-.24.78.78 0 0 0-.559.24l-4.174 4.363a.83.83 0 0 0-.229.584c0 .21.079.427.23.584l4.173 4.363c.158.158.358.24.559.24a.78.78 0 0 0 .558-.24l4.174-4.363a.83.83 0 0 0 .229-.584.82.82 0 0 0-.23-.584"/><path fill="#2D2D2D" d="M16.299.872a.767.767 0 0 0-1.117 0l-4.174 4.364a.767.767 0 0 1-1.117 0L5.731.887a.767.767 0 0 0-1.116 0L.44 5.251a.853.853 0 0 0 0 1.167l10.245 10.71a.767.767 0 0 0 1.117 0l1.74-1.818 2.441-2.545a.766.766 0 0 1 1.117 0l4.174 4.363a.767.767 0 0 0 1.117 0l4.174-4.363a.853.853 0 0 0 0-1.168z"/></svg>